<mxGraphModel dx="0" dy="0" grid="1" gridSize="10" guides="1" tooltips="1" connect="1" arrows="1" fold="1" page="0" pageScale="1" background="none" math="0" shadow="0">
  <root>
    <mxCell id="0" />
    <mxCell id="1" parent="0" />
    <mxCell id="node48" parent="1" vertex="1" value="&lt;p style=&quot;margin:0px;margin-top:4px;text-align:center;&quot;&gt;&lt;b&gt;Addition&lt;/b&gt;&lt;/p&gt;&lt;hr size=&quot;1&quot;/&gt;" style="verticalAlign=top;align=left;overflow=fill;fontSize=14;fontFamily=Helvetica;html=1;rounded=0;shadow=0;comic=0;labelBackgroundColor=none;strokeWidth=1;">
      <mxGeometry x="542" y="925" width="115" height="30" as="geometry" />
    </mxCell>
    <mxCell id="node6" parent="1" vertex="1" value="&lt;p style=&quot;margin:0px;margin-top:4px;text-align:center;&quot;&gt;&lt;b&gt;AlertStyler&lt;/b&gt;&lt;/p&gt;&lt;hr size=&quot;1&quot;/&gt;" style="verticalAlign=top;align=left;overflow=fill;fontSize=14;fontFamily=Helvetica;html=1;rounded=0;shadow=0;comic=0;labelBackgroundColor=none;strokeWidth=1;">
      <mxGeometry x="650" y="852" width="132" height="30" as="geometry" />
    </mxCell>
    <mxCell id="node15" parent="1" vertex="1" value="&lt;p style=&quot;margin:0px;margin-top:4px;text-align:center;&quot;&gt;&lt;b&gt;Alerts&lt;/b&gt;&lt;/p&gt;&lt;hr size=&quot;1&quot;/&gt;" style="verticalAlign=top;align=left;overflow=fill;fontSize=14;fontFamily=Helvetica;html=1;rounded=0;shadow=0;comic=0;labelBackgroundColor=none;strokeWidth=1;">
      <mxGeometry x="845" y="925" width="96" height="30" as="geometry" />
    </mxCell>
    <mxCell id="node16" parent="1" vertex="1" value="&lt;p style=&quot;margin:0px;margin-top:4px;text-align:center;&quot;&gt;&lt;b&gt;Api&lt;/b&gt;&lt;/p&gt;&lt;hr size=&quot;1&quot;/&gt;" style="verticalAlign=top;align=left;overflow=fill;fontSize=14;fontFamily=Helvetica;html=1;rounded=0;shadow=0;comic=0;labelBackgroundColor=none;strokeWidth=1;">
      <mxGeometry x="145" y="998" width="75" height="30" as="geometry" />
    </mxCell>
    <mxCell id="node9" parent="1" vertex="1" value="&lt;p style=&quot;margin:0px;margin-top:4px;text-align:center;&quot;&gt;&lt;b&gt;CompareScore&lt;/b&gt;&lt;/p&gt;&lt;hr size=&quot;1&quot;/&gt;" style="verticalAlign=top;align=left;overflow=fill;fontSize=14;fontFamily=Helvetica;html=1;rounded=0;shadow=0;comic=0;labelBackgroundColor=none;strokeWidth=1;">
      <mxGeometry x="525" y="779" width="166" height="30" as="geometry" />
    </mxCell>
    <mxCell id="node39" parent="1" vertex="1" value="&lt;p style=&quot;margin:0px;margin-top:4px;text-align:center;&quot;&gt;&lt;b&gt;Controller&lt;/b&gt;&lt;/p&gt;&lt;hr size=&quot;1&quot;/&gt;" style="verticalAlign=top;align=left;overflow=fill;fontSize=14;fontFamily=Helvetica;html=1;rounded=0;shadow=0;comic=0;labelBackgroundColor=none;strokeWidth=1;">
      <mxGeometry x="477" y="593" width="127" height="30" as="geometry" />
    </mxCell>
    <mxCell id="node41" parent="1" vertex="1" value="&lt;p style=&quot;margin:0px;margin-top:4px;text-align:center;&quot;&gt;&lt;b&gt;Crossword&lt;/b&gt;&lt;/p&gt;&lt;hr size=&quot;1&quot;/&gt;&lt;p style=&quot;margin:0 0 0 4px;line-height:1.6;&quot;&gt;+ o: String&lt;br/&gt;+ center: int[]&lt;br/&gt;+ fin: String[]&lt;br/&gt;+ freq: int&lt;/p&gt;" style="verticalAlign=top;align=left;overflow=fill;fontSize=14;fontFamily=Helvetica;html=1;rounded=0;shadow=0;comic=0;labelBackgroundColor=none;strokeWidth=1;">
      <mxGeometry x="902" y="198" width="138" height="146" as="geometry" />
    </mxCell>
    <mxCell id="node11" parent="1" vertex="1" value="&lt;p style=&quot;margin:0px;margin-top:4px;text-align:center;&quot;&gt;&lt;b&gt;CustomAlerts&lt;/b&gt;&lt;/p&gt;&lt;hr size=&quot;1&quot;/&gt;" style="verticalAlign=top;align=left;overflow=fill;fontSize=14;fontFamily=Helvetica;html=1;rounded=0;shadow=0;comic=0;labelBackgroundColor=none;strokeWidth=1;">
      <mxGeometry x="81" y="852" width="156" height="30" as="geometry" />
    </mxCell>
    <mxCell id="node50" parent="1" vertex="1" value="&lt;p style=&quot;margin:0px;margin-top:4px;text-align:center;&quot;&gt;&lt;b&gt;DBConfig&lt;/b&gt;&lt;/p&gt;&lt;hr size=&quot;1&quot;/&gt;&lt;p style=&quot;margin:0 0 0 4px;line-height:1.6;&quot;&gt;+ connectionSource: ConnectionSource&lt;br/&gt;+ englishDAO: EnglishDataAccessObject&lt;/p&gt;" style="verticalAlign=top;align=left;overflow=fill;fontSize=14;fontFamily=Helvetica;html=1;rounded=0;shadow=0;comic=0;labelBackgroundColor=none;strokeWidth=1;">
      <mxGeometry x="572" y="276" width="285" height="94" as="geometry" />
    </mxCell>
    <mxCell id="node35" parent="1" vertex="1" value="&lt;p style=&quot;margin:0px;margin-top:4px;text-align:center;&quot;&gt;&lt;b&gt;DBUtils&lt;/b&gt;&lt;/p&gt;&lt;hr size=&quot;1&quot;/&gt;" style="verticalAlign=top;align=left;overflow=fill;fontSize=14;fontFamily=Helvetica;html=1;rounded=0;shadow=0;comic=0;labelBackgroundColor=none;strokeWidth=1;">
      <mxGeometry x="141" y="593" width="107" height="30" as="geometry" />
    </mxCell>
    <mxCell id="node14" parent="1" vertex="1" value="&lt;p style=&quot;margin:0px;margin-top:4px;text-align:center;&quot;&gt;&lt;b&gt;DeviceInfoService&lt;/b&gt;&lt;/p&gt;&lt;hr size=&quot;1&quot;/&gt;&lt;p style=&quot;margin:0 0 0 4px;line-height:1.6;&quot;&gt;+ ScreenWidth: double&lt;br/&gt;+ ScreenHeight: double&lt;br/&gt;+ screenBounds: Rectangle2D&lt;/p&gt;" style="verticalAlign=top;align=left;overflow=fill;fontSize=14;fontFamily=Helvetica;html=1;rounded=0;shadow=0;comic=0;labelBackgroundColor=none;strokeWidth=1;">
      <mxGeometry x="-124" y="515" width="220" height="120" as="geometry" />
    </mxCell>
    <mxCell id="node43" parent="1" vertex="1" value="&lt;p style=&quot;margin:0px;margin-top:4px;text-align:center;&quot;&gt;&lt;b&gt;DialogStyler&lt;/b&gt;&lt;/p&gt;&lt;hr size=&quot;1&quot;/&gt;" style="verticalAlign=top;align=left;overflow=fill;fontSize=14;fontFamily=Helvetica;html=1;rounded=0;shadow=0;comic=0;labelBackgroundColor=none;strokeWidth=1;">
      <mxGeometry x="282" y="852" width="143" height="30" as="geometry" />
    </mxCell>
    <mxCell id="node18" parent="1" vertex="1" value="&lt;p style=&quot;margin:0px;margin-top:4px;text-align:center;&quot;&gt;&lt;b&gt;Dictionary&lt;/b&gt;&lt;/p&gt;&lt;hr size=&quot;1&quot;/&gt;&lt;p style=&quot;margin:0 0 0 4px;line-height:1.6;&quot;&gt;+ tooltip2: Tooltip&lt;br/&gt;+ attachBtn: Button&lt;br/&gt;+ tooltip4: Tooltip&lt;br/&gt;+ addBtn: Button&lt;br/&gt;+ tooltip3: Tooltip&lt;br/&gt;+ quizBtn: Button&lt;br/&gt;+ translateBtn: Button&lt;br/&gt;+ hangmanBtn: Button&lt;br/&gt;+ container: AnchorPane&lt;br/&gt;+ tooltip7: Tooltip&lt;br/&gt;+ searchBtn: Button&lt;br/&gt;+ tooltip5: Tooltip&lt;br/&gt;+ tooltip6: Tooltip&lt;br/&gt;+ exitBtn: Button&lt;br/&gt;+ tooltip1: Tooltip&lt;/p&gt;" style="verticalAlign=top;align=left;overflow=fill;fontSize=14;fontFamily=Helvetica;html=1;rounded=0;shadow=0;comic=0;labelBackgroundColor=none;strokeWidth=1;">
      <mxGeometry x="-124" y="-246" width="187" height="399" as="geometry" />
    </mxCell>
    <mxCell id="node45" parent="1" vertex="1" value="&lt;p style=&quot;margin:0px;margin-top:4px;text-align:center;&quot;&gt;&lt;b&gt;Dictionary&lt;/b&gt;&lt;/p&gt;&lt;hr size=&quot;1&quot;/&gt;&lt;p style=&quot;margin:0 0 0 4px;line-height:1.6;&quot;&gt;+ listVocab: ArrayList&amp;lt;Word&amp;gt;&lt;/p&gt;" style="verticalAlign=top;align=left;overflow=fill;fontSize=14;fontFamily=Helvetica;html=1;rounded=0;shadow=0;comic=0;labelBackgroundColor=none;strokeWidth=1;">
      <mxGeometry x="-124" y="671" width="218" height="68" as="geometry" />
    </mxCell>
    <mxCell id="node37" parent="1" vertex="1" value="&lt;p style=&quot;margin:0px;margin-top:4px;text-align:center;&quot;&gt;&lt;b&gt;DictionaryCommandline&lt;/b&gt;&lt;/p&gt;&lt;hr size=&quot;1&quot;/&gt;" style="verticalAlign=top;align=left;overflow=fill;fontSize=14;fontFamily=Helvetica;html=1;rounded=0;shadow=0;comic=0;labelBackgroundColor=none;strokeWidth=1;">
      <mxGeometry x="139" y="671" width="235" height="30" as="geometry" />
    </mxCell>
    <mxCell id="node47" parent="1" vertex="1" value="&lt;p style=&quot;margin:0px;margin-top:4px;text-align:center;&quot;&gt;&lt;b&gt;DictionaryManagement&lt;/b&gt;&lt;/p&gt;&lt;hr size=&quot;1&quot;/&gt;" style="verticalAlign=top;align=left;overflow=fill;fontSize=14;fontFamily=Helvetica;html=1;rounded=0;shadow=0;comic=0;labelBackgroundColor=none;strokeWidth=1;">
      <mxGeometry x="419" y="671" width="228" height="30" as="geometry" />
    </mxCell>
    <mxCell id="node34" parent="1" vertex="1" value="&lt;p style=&quot;margin:0px;margin-top:4px;text-align:center;&quot;&gt;&lt;b&gt;EncodingService&lt;/b&gt;&lt;/p&gt;&lt;hr size=&quot;1&quot;/&gt;" style="verticalAlign=top;align=left;overflow=fill;fontSize=14;fontFamily=Helvetica;html=1;rounded=0;shadow=0;comic=0;labelBackgroundColor=none;strokeWidth=1;">
      <mxGeometry x="917" y="671" width="179" height="30" as="geometry" />
    </mxCell>
    <mxCell id="node10" parent="1" vertex="1" value="&lt;p style=&quot;margin:0px;margin-top:4px;text-align:center;&quot;&gt;&lt;b&gt;English&lt;/b&gt;&lt;/p&gt;&lt;hr size=&quot;1&quot;/&gt;" style="verticalAlign=top;align=left;overflow=fill;fontSize=14;fontFamily=Helvetica;html=1;rounded=0;shadow=0;comic=0;labelBackgroundColor=none;strokeWidth=1;">
      <mxGeometry x="571" y="-246" width="106" height="30" as="geometry" />
    </mxCell>
    <mxCell id="node44" parent="1" vertex="1" value="&lt;p style=&quot;margin:0px;margin-top:4px;text-align:center;&quot;&gt;&lt;b&gt;EnglishDataAccessObject&lt;/b&gt;&lt;/p&gt;&lt;hr size=&quot;1&quot;/&gt;" style="verticalAlign=top;align=left;overflow=fill;fontSize=14;fontFamily=Helvetica;html=1;rounded=0;shadow=0;comic=0;labelBackgroundColor=none;strokeWidth=1;">
      <mxGeometry x="591" y="198" width="247" height="30" as="geometry" />
    </mxCell>
    <mxCell id="node13" parent="1" vertex="1" value="&lt;p style=&quot;margin:0px;margin-top:4px;text-align:center;&quot;&gt;&lt;b&gt;FileInput&lt;/b&gt;&lt;/p&gt;&lt;hr size=&quot;1&quot;/&gt;" style="verticalAlign=top;align=left;overflow=fill;fontSize=14;fontFamily=Helvetica;html=1;rounded=0;shadow=0;comic=0;labelBackgroundColor=none;strokeWidth=1;">
      <mxGeometry x="381" y="925" width="116" height="30" as="geometry" />
    </mxCell>
    <mxCell id="node29" parent="1" vertex="1" value="&lt;p style=&quot;margin:0px;margin-top:4px;text-align:center;&quot;&gt;&lt;b&gt;FileService&lt;/b&gt;&lt;/p&gt;&lt;hr size=&quot;1&quot;/&gt;" style="verticalAlign=top;align=left;overflow=fill;fontSize=14;fontFamily=Helvetica;html=1;rounded=0;shadow=0;comic=0;labelBackgroundColor=none;strokeWidth=1;">
      <mxGeometry x="470" y="852" width="135" height="30" as="geometry" />
    </mxCell>
    <mxCell id="node24" parent="1" vertex="1" value="&lt;p style=&quot;margin:0px;margin-top:4px;text-align:center;&quot;&gt;&lt;b&gt;HangmanMain&lt;/b&gt;&lt;/p&gt;&lt;hr size=&quot;1&quot;/&gt;" style="verticalAlign=top;align=left;overflow=fill;fontSize=14;fontFamily=Helvetica;html=1;rounded=0;shadow=0;comic=0;labelBackgroundColor=none;strokeWidth=1;">
      <mxGeometry x="-124" y="852" width="160" height="30" as="geometry" />
    </mxCell>
    <mxCell id="node1" parent="1" vertex="1" value="&lt;p style=&quot;margin:0px;margin-top:4px;text-align:center;&quot;&gt;&lt;b&gt;HelloApplication&lt;/b&gt;&lt;/p&gt;&lt;hr size=&quot;1&quot;/&gt;" style="verticalAlign=top;align=left;overflow=fill;fontSize=14;fontFamily=Helvetica;html=1;rounded=0;shadow=0;comic=0;labelBackgroundColor=none;strokeWidth=1;">
      <mxGeometry x="-124" y="779" width="174" height="30" as="geometry" />
    </mxCell>
    <mxCell id="node26" parent="1" vertex="1" value="&lt;p style=&quot;margin:0px;margin-top:4px;text-align:center;&quot;&gt;&lt;b&gt;HelloApplication&lt;/b&gt;&lt;/p&gt;&lt;hr size=&quot;1&quot;/&gt;" style="verticalAlign=top;align=left;overflow=fill;fontSize=14;fontFamily=Helvetica;html=1;rounded=0;shadow=0;comic=0;labelBackgroundColor=none;strokeWidth=1;">
      <mxGeometry x="95" y="779" width="174" height="30" as="geometry" />
    </mxCell>
    <mxCell id="node7" parent="1" vertex="1" value="&lt;p style=&quot;margin:0px;margin-top:4px;text-align:center;&quot;&gt;&lt;b&gt;HelloController&lt;/b&gt;&lt;/p&gt;&lt;hr size=&quot;1&quot;/&gt;" style="verticalAlign=top;align=left;overflow=fill;fontSize=14;fontFamily=Helvetica;html=1;rounded=0;shadow=0;comic=0;labelBackgroundColor=none;strokeWidth=1;">
      <mxGeometry x="314" y="779" width="166" height="30" as="geometry" />
    </mxCell>
    <mxCell id="node27" parent="1" vertex="1" value="&lt;p style=&quot;margin:0px;margin-top:4px;text-align:center;&quot;&gt;&lt;b&gt;HelloController&lt;/b&gt;&lt;/p&gt;&lt;hr size=&quot;1&quot;/&gt;" style="verticalAlign=top;align=left;overflow=fill;fontSize=14;fontFamily=Helvetica;html=1;rounded=0;shadow=0;comic=0;labelBackgroundColor=none;strokeWidth=1;">
      <mxGeometry x="736" y="779" width="166" height="30" as="geometry" />
    </mxCell>
    <mxCell id="node38" parent="1" vertex="1" value="&lt;p style=&quot;margin:0px;margin-top:4px;text-align:center;&quot;&gt;&lt;b&gt;ImageTranslationService&lt;/b&gt;&lt;/p&gt;&lt;hr size=&quot;1&quot;/&gt;&lt;p style=&quot;margin:0 0 0 4px;line-height:1.6;&quot;&gt;+ SERVER_URL: URL&lt;/p&gt;" style="verticalAlign=top;align=left;overflow=fill;fontSize=14;fontFamily=Helvetica;html=1;rounded=0;shadow=0;comic=0;labelBackgroundColor=none;strokeWidth=1;">
      <mxGeometry x="649" y="515" width="242" height="68" as="geometry" />
    </mxCell>
    <mxCell id="node0" parent="1" vertex="1" value="&lt;p style=&quot;margin:0px;margin-top:4px;text-align:center;&quot;&gt;&lt;b&gt;Login&lt;/b&gt;&lt;/p&gt;&lt;hr size=&quot;1&quot;/&gt;" style="verticalAlign=top;align=left;overflow=fill;fontSize=14;fontFamily=Helvetica;html=1;rounded=0;shadow=0;comic=0;labelBackgroundColor=none;strokeWidth=1;">
      <mxGeometry x="986" y="925" width="92" height="30" as="geometry" />
    </mxCell>
    <mxCell id="node40" parent="1" vertex="1" value="&lt;p style=&quot;margin:0px;margin-top:4px;text-align:center;&quot;&gt;&lt;b&gt;LoginCon&lt;/b&gt;&lt;/p&gt;&lt;hr size=&quot;1&quot;/&gt;" style="verticalAlign=top;align=left;overflow=fill;fontSize=14;fontFamily=Helvetica;html=1;rounded=0;shadow=0;comic=0;labelBackgroundColor=none;strokeWidth=1;">
      <mxGeometry x="50" y="925" width="123" height="30" as="geometry" />
    </mxCell>
    <mxCell id="node22" parent="1" vertex="1" value="&lt;p style=&quot;margin:0px;margin-top:4px;text-align:center;&quot;&gt;&lt;b&gt;Main&lt;/b&gt;&lt;/p&gt;&lt;hr size=&quot;1&quot;/&gt;" style="verticalAlign=top;align=left;overflow=fill;fontSize=14;fontFamily=Helvetica;html=1;rounded=0;shadow=0;comic=0;labelBackgroundColor=none;strokeWidth=1;">
      <mxGeometry x="13" y="998" width="87" height="30" as="geometry" />
    </mxCell>
    <mxCell id="node5" parent="1" vertex="1" value="&lt;p style=&quot;margin:0px;margin-top:4px;text-align:center;&quot;&gt;&lt;b&gt;MainApp&lt;/b&gt;&lt;/p&gt;&lt;hr size=&quot;1&quot;/&gt;" style="verticalAlign=top;align=left;overflow=fill;fontSize=14;fontFamily=Helvetica;html=1;rounded=0;shadow=0;comic=0;labelBackgroundColor=none;strokeWidth=1;">
      <mxGeometry x="218" y="925" width="118" height="30" as="geometry" />
    </mxCell>
    <mxCell id="node46" parent="1" vertex="1" value="&lt;p style=&quot;margin:0px;margin-top:4px;text-align:center;&quot;&gt;&lt;b&gt;MainController&lt;/b&gt;&lt;/p&gt;&lt;hr size=&quot;1&quot;/&gt;" style="verticalAlign=top;align=left;overflow=fill;fontSize=14;fontFamily=Helvetica;html=1;rounded=0;shadow=0;comic=0;labelBackgroundColor=none;strokeWidth=1;">
      <mxGeometry x="268" y="593" width="164" height="30" as="geometry" />
    </mxCell>
    <mxCell id="node32" parent="1" vertex="1" value="&lt;p style=&quot;margin:0px;margin-top:4px;text-align:center;&quot;&gt;&lt;b&gt;Mercy&lt;/b&gt;&lt;/p&gt;&lt;hr size=&quot;1&quot;/&gt;" style="verticalAlign=top;align=left;overflow=fill;fontSize=14;fontFamily=Helvetica;html=1;rounded=0;shadow=0;comic=0;labelBackgroundColor=none;strokeWidth=1;">
      <mxGeometry x="702" y="925" width="98" height="30" as="geometry" />
    </mxCell>
    <mxCell id="node8" parent="1" vertex="1" value="&lt;p style=&quot;margin:0px;margin-top:4px;text-align:center;&quot;&gt;&lt;b&gt;MyDictionaryApp&lt;/b&gt;&lt;/p&gt;&lt;hr size=&quot;1&quot;/&gt;&lt;p style=&quot;margin:0 0 0 4px;line-height:1.6;&quot;&gt;+ dbSize: int&lt;br/&gt;+ englishList: List&amp;lt;English&amp;gt;&lt;br/&gt;+ MeanMapWord: Map&amp;lt;String, String&amp;gt;&lt;br/&gt;+ AppStage: Stage&lt;br/&gt;+ WordMapMean: Map&amp;lt;String, String&amp;gt;&lt;/p&gt;" style="verticalAlign=top;align=left;overflow=fill;fontSize=14;fontFamily=Helvetica;html=1;rounded=0;shadow=0;comic=0;labelBackgroundColor=none;strokeWidth=1;">
      <mxGeometry x="641" y="-144" width="274" height="159" as="geometry" />
    </mxCell>
    <mxCell id="node19" parent="1" vertex="1" value="&lt;p style=&quot;margin:0px;margin-top:4px;text-align:center;&quot;&gt;&lt;b&gt;MyThread&lt;/b&gt;&lt;/p&gt;&lt;hr size=&quot;1&quot;/&gt;" style="verticalAlign=top;align=left;overflow=fill;fontSize=14;fontFamily=Helvetica;html=1;rounded=0;shadow=0;comic=0;labelBackgroundColor=none;strokeWidth=1;">
      <mxGeometry x="-124" y="925" width="129" height="30" as="geometry" />
    </mxCell>
    <mxCell id="node25" parent="1" vertex="1" value="&lt;p style=&quot;margin:0px;margin-top:4px;text-align:center;&quot;&gt;&lt;b&gt;Player&lt;/b&gt;&lt;/p&gt;&lt;hr size=&quot;1&quot;/&gt;" style="verticalAlign=top;align=left;overflow=fill;fontSize=14;fontFamily=Helvetica;html=1;rounded=0;shadow=0;comic=0;labelBackgroundColor=none;strokeWidth=1;">
      <mxGeometry x="223" y="515" width="98" height="30" as="geometry" />
    </mxCell>
    <mxCell id="node51" parent="1" vertex="1" value="&lt;p style=&quot;margin:0px;margin-top:4px;text-align:center;&quot;&gt;&lt;i&gt;&amp;lt;&amp;lt;enumeration&amp;gt;&amp;gt;&lt;/i&gt;&lt;br/&gt;&lt;b&gt;QuestionType&lt;/b&gt;&lt;/p&gt;&lt;hr size=&quot;1&quot;/&gt;&lt;p style=&quot;margin:0 0 0 4px;line-height:1.6;&quot;&gt;+ FillBlank: &lt;br/&gt;+ ChooseWord: &lt;br/&gt;+ ListenAndChoose: &lt;br/&gt;+ ListenAndFillBlank: &lt;br/&gt;+ ChooseMeaning: &lt;/p&gt;" style="verticalAlign=top;align=left;overflow=fill;fontSize=14;fontFamily=Helvetica;html=1;rounded=0;shadow=0;comic=0;labelBackgroundColor=none;strokeWidth=1;">
      <mxGeometry x="108" y="-90" width="167" height="159" as="geometry" />
    </mxCell>
    <mxCell id="node52" parent="1" vertex="1" value="&lt;p style=&quot;margin:0px;margin-top:4px;text-align:center;&quot;&gt;&lt;i&gt;&amp;lt;&amp;lt;enumeration&amp;gt;&amp;gt;&lt;/i&gt;&lt;br/&gt;&lt;b&gt;QuestionType&lt;/b&gt;&lt;/p&gt;&lt;hr size=&quot;1&quot;/&gt;&lt;p style=&quot;margin:0 0 0 4px;line-height:1.6;&quot;&gt;+ ListenAndChoose: &lt;br/&gt;+ ChooseWord: &lt;br/&gt;+ FillBlank: &lt;br/&gt;+ ChooseMeaning: &lt;/p&gt;" style="verticalAlign=top;align=left;overflow=fill;fontSize=14;fontFamily=Helvetica;html=1;rounded=0;shadow=0;comic=0;labelBackgroundColor=none;strokeWidth=1;">
      <mxGeometry x="160" y="276" width="163" height="169" as="geometry" />
    </mxCell>
    <mxCell id="node49" parent="1" vertex="1" value="&lt;p style=&quot;margin:0px;margin-top:4px;text-align:center;&quot;&gt;&lt;b&gt;Quiz&lt;/b&gt;&lt;/p&gt;&lt;hr size=&quot;1&quot;/&gt;" style="verticalAlign=top;align=left;overflow=fill;fontSize=14;fontFamily=Helvetica;html=1;rounded=0;shadow=0;comic=0;labelBackgroundColor=none;strokeWidth=1;">
      <mxGeometry x="149" y="-168" width="85" height="30" as="geometry" />
    </mxCell>
    <mxCell id="node53" parent="1" vertex="1" value="&lt;p style=&quot;margin:0px;margin-top:4px;text-align:center;&quot;&gt;&lt;b&gt;QuizFactory&lt;/b&gt;&lt;/p&gt;&lt;hr size=&quot;1&quot;/&gt;" style="verticalAlign=top;align=left;overflow=fill;fontSize=14;fontFamily=Helvetica;html=1;rounded=0;shadow=0;comic=0;labelBackgroundColor=none;strokeWidth=1;">
      <mxGeometry x="171" y="198" width="142" height="30" as="geometry" />
    </mxCell>
    <mxCell id="node3" parent="1" vertex="1" value="&lt;p style=&quot;margin:0px;margin-top:4px;text-align:center;&quot;&gt;&lt;b&gt;RecordingService&lt;/b&gt;&lt;/p&gt;&lt;hr size=&quot;1&quot;/&gt;&lt;p style=&quot;margin:0 0 0 4px;line-height:1.6;&quot;&gt;+ instance: RecordingService&lt;br/&gt;+ isRecording: boolean&lt;br/&gt;+ targetDataLine: TargetDataLine&lt;/p&gt;" style="verticalAlign=top;align=left;overflow=fill;fontSize=14;fontFamily=Helvetica;html=1;rounded=0;shadow=0;comic=0;labelBackgroundColor=none;strokeWidth=1;">
      <mxGeometry x="-124" y="198" width="239" height="120" as="geometry" />
    </mxCell>
    <mxCell id="node4" parent="1" vertex="1" value="&lt;p style=&quot;margin:0px;margin-top:4px;text-align:center;&quot;&gt;&lt;b&gt;Searching&lt;/b&gt;&lt;/p&gt;&lt;hr size=&quot;1&quot;/&gt;&lt;p style=&quot;margin:0 0 0 4px;line-height:1.6;&quot;&gt;+ currentWord: English&lt;br/&gt;+ countRes: Label&lt;br/&gt;+ searchBox: TextField&lt;br/&gt;+ observableWord: ObservableList&amp;lt;String&amp;gt;&lt;br/&gt;+ searchResultsListView: ListView&amp;lt;String&amp;gt;&lt;br/&gt;+ wordDefinition: TextArea&lt;br/&gt;+ notAvailableLabel: Label&lt;/p&gt;" style="verticalAlign=top;align=left;overflow=fill;fontSize=14;fontFamily=Helvetica;html=1;rounded=0;shadow=0;comic=0;labelBackgroundColor=none;strokeWidth=1;">
      <mxGeometry x="320" y="-168" width="301" height="207" as="geometry" />
    </mxCell>
    <mxCell id="node20" parent="1" vertex="1" value="&lt;p style=&quot;margin:0px;margin-top:4px;text-align:center;&quot;&gt;&lt;b&gt;SignIn&lt;/b&gt;&lt;/p&gt;&lt;hr size=&quot;1&quot;/&gt;" style="verticalAlign=top;align=left;overflow=fill;fontSize=14;fontFamily=Helvetica;html=1;rounded=0;shadow=0;comic=0;labelBackgroundColor=none;strokeWidth=1;">
      <mxGeometry x="429" y="278" width="98" height="30" as="geometry" />
    </mxCell>
    <mxCell id="node42" parent="1" vertex="1" value="&lt;p style=&quot;margin:0px;margin-top:4px;text-align:center;&quot;&gt;&lt;b&gt;SignUp&lt;/b&gt;&lt;/p&gt;&lt;hr size=&quot;1&quot;/&gt;" style="verticalAlign=top;align=left;overflow=fill;fontSize=14;fontFamily=Helvetica;html=1;rounded=0;shadow=0;comic=0;labelBackgroundColor=none;strokeWidth=1;">
      <mxGeometry x="393" y="358" width="110" height="30" as="geometry" />
    </mxCell>
    <mxCell id="node17" parent="1" vertex="1" value="&lt;p style=&quot;margin:0px;margin-top:4px;text-align:center;&quot;&gt;&lt;b&gt;StringUtils&lt;/b&gt;&lt;/p&gt;&lt;hr size=&quot;1&quot;/&gt;" style="verticalAlign=top;align=left;overflow=fill;fontSize=14;fontFamily=Helvetica;html=1;rounded=0;shadow=0;comic=0;labelBackgroundColor=none;strokeWidth=1;">
      <mxGeometry x="827" y="852" width="130" height="30" as="geometry" />
    </mxCell>
    <mxCell id="node21" parent="1" vertex="1" value="&lt;p style=&quot;margin:0px;margin-top:4px;text-align:center;&quot;&gt;&lt;b&gt;StringUtils&lt;/b&gt;&lt;/p&gt;&lt;hr size=&quot;1&quot;/&gt;" style="verticalAlign=top;align=left;overflow=fill;fontSize=14;fontFamily=Helvetica;html=1;rounded=0;shadow=0;comic=0;labelBackgroundColor=none;strokeWidth=1;">
      <mxGeometry x="1002" y="852" width="130" height="30" as="geometry" />
    </mxCell>
    <mxCell id="node12" parent="1" vertex="1" value="&lt;p style=&quot;margin:0px;margin-top:4px;text-align:center;&quot;&gt;&lt;b&gt;TranslateService&lt;/b&gt;&lt;/p&gt;&lt;hr size=&quot;1&quot;/&gt;" style="verticalAlign=top;align=left;overflow=fill;fontSize=14;fontFamily=Helvetica;html=1;rounded=0;shadow=0;comic=0;labelBackgroundColor=none;strokeWidth=1;">
      <mxGeometry x="692" y="671" width="180" height="30" as="geometry" />
    </mxCell>
    <mxCell id="node28" parent="1" vertex="1" value="&lt;p style=&quot;margin:0px;margin-top:4px;text-align:center;&quot;&gt;&lt;b&gt;Translation&lt;/b&gt;&lt;/p&gt;&lt;hr size=&quot;1&quot;/&gt;&lt;p style=&quot;margin:0 0 0 4px;line-height:1.6;&quot;&gt;+ recordButton: Button&lt;br/&gt;+ TranslationLanguage: TextArea&lt;br/&gt;+ SourceLanguage: TextArea&lt;/p&gt;" style="verticalAlign=top;align=left;overflow=fill;fontSize=14;fontFamily=Helvetica;html=1;rounded=0;shadow=0;comic=0;labelBackgroundColor=none;strokeWidth=1;">
      <mxGeometry x="-123" y="359" width="238" height="120" as="geometry" />
    </mxCell>
    <mxCell id="node23" parent="1" vertex="1" value="&lt;p style=&quot;margin:0px;margin-top:4px;text-align:center;&quot;&gt;&lt;b&gt;User&lt;/b&gt;&lt;/p&gt;&lt;hr size=&quot;1&quot;/&gt;" style="verticalAlign=top;align=left;overflow=fill;fontSize=14;fontFamily=Helvetica;html=1;rounded=0;shadow=0;comic=0;labelBackgroundColor=none;strokeWidth=1;">
      <mxGeometry x="404" y="198" width="87" height="30" as="geometry" />
    </mxCell>
    <mxCell id="node36" parent="1" vertex="1" value="&lt;p style=&quot;margin:0px;margin-top:4px;text-align:center;&quot;&gt;&lt;b&gt;VoiceManager&lt;/b&gt;&lt;/p&gt;&lt;hr size=&quot;1&quot;/&gt;" style="verticalAlign=top;align=left;overflow=fill;fontSize=14;fontFamily=Helvetica;html=1;rounded=0;shadow=0;comic=0;labelBackgroundColor=none;strokeWidth=1;">
      <mxGeometry x="947" y="779" width="161" height="30" as="geometry" />
    </mxCell>
    <mxCell id="node33" parent="1" vertex="1" value="&lt;p style=&quot;margin:0px;margin-top:4px;text-align:center;&quot;&gt;&lt;b&gt;VoiceService&lt;/b&gt;&lt;/p&gt;&lt;hr size=&quot;1&quot;/&gt;" style="verticalAlign=top;align=left;overflow=fill;fontSize=14;fontFamily=Helvetica;html=1;rounded=0;shadow=0;comic=0;labelBackgroundColor=none;strokeWidth=1;">
      <mxGeometry x="116" y="-246" width="151" height="30" as="geometry" />
    </mxCell>
    <mxCell id="node31" parent="1" vertex="1" value="&lt;p style=&quot;margin:0px;margin-top:4px;text-align:center;&quot;&gt;&lt;b&gt;WavTranslationService&lt;/b&gt;&lt;/p&gt;&lt;hr size=&quot;1&quot;/&gt;&lt;p style=&quot;margin:0 0 0 4px;line-height:1.6;&quot;&gt;+ SERVER_URL: URL&lt;/p&gt;" style="verticalAlign=top;align=left;overflow=fill;fontSize=14;fontFamily=Helvetica;html=1;rounded=0;shadow=0;comic=0;labelBackgroundColor=none;strokeWidth=1;">
      <mxGeometry x="936" y="515" width="229" height="68" as="geometry" />
    </mxCell>
    <mxCell id="node30" parent="1" vertex="1" value="&lt;p style=&quot;margin:0px;margin-top:4px;text-align:center;&quot;&gt;&lt;b&gt;Word&lt;/b&gt;&lt;/p&gt;&lt;hr size=&quot;1&quot;/&gt;" style="verticalAlign=top;align=left;overflow=fill;fontSize=14;fontFamily=Helvetica;html=1;rounded=0;shadow=0;comic=0;labelBackgroundColor=none;strokeWidth=1;">
      <mxGeometry x="-124" y="998" width="92" height="30" as="geometry" />
    </mxCell>
    <mxCell id="node2" parent="1" vertex="1" value="&lt;p style=&quot;margin:0px;margin-top:4px;text-align:center;&quot;&gt;&lt;b&gt;Words&lt;/b&gt;&lt;/p&gt;&lt;hr size=&quot;1&quot;/&gt;" style="verticalAlign=top;align=left;overflow=fill;fontSize=14;fontFamily=Helvetica;html=1;rounded=0;shadow=0;comic=0;labelBackgroundColor=none;strokeWidth=1;">
      <mxGeometry x="490" y="515" width="101" height="30" as="geometry" />
    </mxCell>
    <mxCell id="edge5" edge="1" value="" parent="1" source="node39" target="node2" style="html=1;rounded=1;edgeStyle=orthogonalEdgeStyle;dashed=0;startArrow=diamondThinstartSize=12;endArrow=openThin;endSize=12;strokeColor=#595959;exitX=0.500;exitY=0.002;exitDx=0;exitDy=0;entryX=0.500;entryY=1.002;entryDx=0;entryDy=0;">
      <mxGeometry width="50" height="50" relative="1" as="geometry">
        <Array as="points" />
      </mxGeometry>
    </mxCell>
    <mxCell id="label30" parent="edge5" vertex="1" connectable="0" value="1" style="edgeLabel;resizable=0;html=1;align=left;verticalAlign=top;strokeColor=default;">
      <mxGeometry x="530" y="568" as="geometry" />
    </mxCell>
    <mxCell id="label34" parent="edge5" vertex="1" connectable="0" value="1" style="edgeLabel;resizable=0;html=1;align=left;verticalAlign=top;strokeColor=default;">
      <mxGeometry x="530" y="548" as="geometry" />
    </mxCell>
    <mxCell id="label35" parent="edge5" vertex="1" connectable="0" value="word" style="edgeLabel;resizable=0;html=1;align=left;verticalAlign=top;strokeColor=default;">
      <mxGeometry x="541" y="548" as="geometry" />
    </mxCell>
    <mxCell id="edge1" edge="1" value="" parent="1" source="node50" target="node44" style="html=1;rounded=1;edgeStyle=orthogonalEdgeStyle;dashed=0;startArrow=diamondThinstartSize=12;endArrow=openThin;endSize=12;strokeColor=#595959;exitX=0.500;exitY=0.001;exitDx=0;exitDy=0;entryX=0.500;entryY=1.002;entryDx=0;entryDy=0;">
      <mxGeometry width="50" height="50" relative="1" as="geometry">
        <Array as="points" />
      </mxGeometry>
    </mxCell>
    <mxCell id="label6" parent="edge1" vertex="1" connectable="0" value="1" style="edgeLabel;resizable=0;html=1;align=left;verticalAlign=top;strokeColor=default;">
      <mxGeometry x="703" y="251" as="geometry" />
    </mxCell>
    <mxCell id="label10" parent="edge1" vertex="1" connectable="0" value="1" style="edgeLabel;resizable=0;html=1;align=left;verticalAlign=top;strokeColor=default;">
      <mxGeometry x="703" y="231" as="geometry" />
    </mxCell>
    <mxCell id="label11" parent="edge1" vertex="1" connectable="0" value="englishDAO" style="edgeLabel;resizable=0;html=1;align=left;verticalAlign=top;strokeColor=default;">
      <mxGeometry x="714" y="231" as="geometry" />
    </mxCell>
    <mxCell id="edge4" edge="1" value="" parent="1" source="node35" target="node25" style="html=1;rounded=1;edgeStyle=orthogonalEdgeStyle;dashed=0;startArrow=diamondThinstartSize=12;endArrow=openThin;endSize=12;strokeColor=#595959;exitX=0.500;exitY=0.002;exitDx=0;exitDy=0;entryX=0.500;entryY=1.002;entryDx=0;entryDy=0;">
      <mxGeometry width="50" height="50" relative="1" as="geometry">
        <Array as="points">
          <mxPoint x="195" y="568" />
          <mxPoint x="272" y="568" />
        </Array>
      </mxGeometry>
    </mxCell>
    <mxCell id="label24" parent="edge4" vertex="1" connectable="0" value="1" style="edgeLabel;resizable=0;html=1;align=left;verticalAlign=top;strokeColor=default;">
      <mxGeometry x="184" y="568" as="geometry" />
    </mxCell>
    <mxCell id="label28" parent="edge4" vertex="1" connectable="0" value="*" style="edgeLabel;resizable=0;html=1;align=left;verticalAlign=top;strokeColor=default;">
      <mxGeometry x="209" y="548" as="geometry" />
    </mxCell>
    <mxCell id="label29" parent="edge4" vertex="1" connectable="0" value="list" style="edgeLabel;resizable=0;html=1;align=left;verticalAlign=top;strokeColor=default;">
      <mxGeometry x="235" y="571" as="geometry" />
    </mxCell>
    <mxCell id="edge2" edge="1" value="" parent="1" source="node46" target="node25" style="html=1;rounded=1;edgeStyle=orthogonalEdgeStyle;dashed=0;startArrow=diamondThinstartSize=12;endArrow=openThin;endSize=12;strokeColor=#595959;exitX=0.500;exitY=0.002;exitDx=0;exitDy=0;entryX=0.500;entryY=1.002;entryDx=0;entryDy=0;">
      <mxGeometry width="50" height="50" relative="1" as="geometry">
        <Array as="points">
          <mxPoint x="350" y="568" />
          <mxPoint x="272" y="568" />
        </Array>
      </mxGeometry>
    </mxCell>
    <mxCell id="label12" parent="edge2" vertex="1" connectable="0" value="1" style="edgeLabel;resizable=0;html=1;align=left;verticalAlign=top;strokeColor=default;">
      <mxGeometry x="339" y="568" as="geometry" />
    </mxCell>
    <mxCell id="label16" parent="edge2" vertex="1" connectable="0" value="*" style="edgeLabel;resizable=0;html=1;align=left;verticalAlign=top;strokeColor=default;">
      <mxGeometry x="307" y="548" as="geometry" />
    </mxCell>
    <mxCell id="label17" parent="edge2" vertex="1" connectable="0" value="listP" style="edgeLabel;resizable=0;html=1;align=left;verticalAlign=top;strokeColor=default;">
      <mxGeometry x="297" y="568" as="geometry" />
    </mxCell>
    <mxCell id="edge10" edge="1" value="" parent="1" source="node8" target="node10" style="html=1;rounded=1;edgeStyle=orthogonalEdgeStyle;dashed=0;startArrow=diamondThinstartSize=12;endArrow=openThin;endSize=12;strokeColor=#595959;exitX=0.500;exitY=0.000;exitDx=0;exitDy=0;entryX=0.500;entryY=1.002;entryDx=0;entryDy=0;">
      <mxGeometry width="50" height="50" relative="1" as="geometry">
        <Array as="points">
          <mxPoint x="778" y="-193" />
          <mxPoint x="624" y="-193" />
        </Array>
      </mxGeometry>
    </mxCell>
    <mxCell id="label60" parent="edge10" vertex="1" connectable="0" value="1" style="edgeLabel;resizable=0;html=1;align=left;verticalAlign=top;strokeColor=default;">
      <mxGeometry x="767" y="-178" as="geometry" />
    </mxCell>
    <mxCell id="label64" parent="edge10" vertex="1" connectable="0" value="*" style="edgeLabel;resizable=0;html=1;align=left;verticalAlign=top;strokeColor=default;">
      <mxGeometry x="651" y="-213" as="geometry" />
    </mxCell>
    <mxCell id="label65" parent="edge10" vertex="1" connectable="0" value="englishList" style="edgeLabel;resizable=0;html=1;align=left;verticalAlign=top;strokeColor=default;">
      <mxGeometry x="669" y="-193" as="geometry" />
    </mxCell>
    <mxCell id="edge11" edge="1" value="" parent="1" source="node51" target="node49" style="html=1;rounded=1;edgeStyle=orthogonalEdgeStyle;dashed=0;startArrow=circlePlus;startFill=0;endArrow=none;strokeColor=#820000;exitX=0.500;exitY=0.000;exitDx=0;exitDy=0;entryX=0.500;entryY=1.002;entryDx=0;entryDy=0;">
      <mxGeometry width="50" height="50" relative="1" as="geometry">
        <Array as="points" />
      </mxGeometry>
    </mxCell>
    <mxCell id="edge12" edge="1" value="" parent="1" source="node52" target="node53" style="html=1;rounded=1;edgeStyle=orthogonalEdgeStyle;dashed=0;startArrow=circlePlus;startFill=0;endArrow=none;strokeColor=#820000;exitX=0.500;exitY=0.000;exitDx=0;exitDy=0;entryX=0.500;entryY=1.002;entryDx=0;entryDy=0;">
      <mxGeometry width="50" height="50" relative="1" as="geometry">
        <Array as="points" />
      </mxGeometry>
    </mxCell>
    <mxCell id="edge6" edge="1" value="" parent="1" source="node49" target="node33" style="html=1;rounded=1;edgeStyle=orthogonalEdgeStyle;dashed=0;startArrow=diamondThinstartSize=12;endArrow=openThin;endSize=12;strokeColor=#595959;exitX=0.500;exitY=0.002;exitDx=0;exitDy=0;entryX=0.500;entryY=1.002;entryDx=0;entryDy=0;">
      <mxGeometry width="50" height="50" relative="1" as="geometry">
        <Array as="points" />
      </mxGeometry>
    </mxCell>
    <mxCell id="label36" parent="edge6" vertex="1" connectable="0" value="1" style="edgeLabel;resizable=0;html=1;align=left;verticalAlign=top;strokeColor=default;">
      <mxGeometry x="181" y="-193" as="geometry" />
    </mxCell>
    <mxCell id="label40" parent="edge6" vertex="1" connectable="0" value="1" style="edgeLabel;resizable=0;html=1;align=left;verticalAlign=top;strokeColor=default;">
      <mxGeometry x="181" y="-213" as="geometry" />
    </mxCell>
    <mxCell id="label41" parent="edge6" vertex="1" connectable="0" value="voiceService" style="edgeLabel;resizable=0;html=1;align=left;verticalAlign=top;strokeColor=default;">
      <mxGeometry x="192" y="-213" as="geometry" />
    </mxCell>
    <mxCell id="edge3" edge="1" value="" parent="1" source="node4" target="node10" style="html=1;rounded=1;edgeStyle=orthogonalEdgeStyle;dashed=0;startArrow=diamondThinstartSize=12;endArrow=openThin;endSize=12;strokeColor=#595959;exitX=0.500;exitY=0.000;exitDx=0;exitDy=0;entryX=0.500;entryY=1.002;entryDx=0;entryDy=0;">
      <mxGeometry width="50" height="50" relative="1" as="geometry">
        <Array as="points">
          <mxPoint x="471" y="-193" />
          <mxPoint x="624" y="-193" />
        </Array>
      </mxGeometry>
    </mxCell>
    <mxCell id="label18" parent="edge3" vertex="1" connectable="0" value="1" style="edgeLabel;resizable=0;html=1;align=left;verticalAlign=top;strokeColor=default;">
      <mxGeometry x="460" y="-193" as="geometry" />
    </mxCell>
    <mxCell id="label22" parent="edge3" vertex="1" connectable="0" value="1" style="edgeLabel;resizable=0;html=1;align=left;verticalAlign=top;strokeColor=default;">
      <mxGeometry x="557" y="-213" as="geometry" />
    </mxCell>
    <mxCell id="label23" parent="edge3" vertex="1" connectable="0" value="currentWord" style="edgeLabel;resizable=0;html=1;align=left;verticalAlign=top;strokeColor=default;">
      <mxGeometry x="511" y="-190" as="geometry" />
    </mxCell>
    <mxCell id="edge9" edge="1" value="" parent="1" source="node20" target="node23" style="html=1;rounded=1;edgeStyle=orthogonalEdgeStyle;dashed=1;startArrow=none;endArrow=openThin;endSize=12;strokeColor=#595959;exitX=0.500;exitY=0.001;exitDx=0;exitDy=0;entryX=0.500;entryY=1.001;entryDx=0;entryDy=0;">
      <mxGeometry width="50" height="50" relative="1" as="geometry">
        <Array as="points">
          <mxPoint x="478" y="252" />
          <mxPoint x="448" y="252" />
        </Array>
      </mxGeometry>
    </mxCell>
    <mxCell id="label56" parent="edge9" vertex="1" connectable="0" value="«create»" style="edgeLabel;resizable=0;html=1;align=left;verticalAlign=top;strokeColor=default;">
      <mxGeometry x="453" y="232" as="geometry" />
    </mxCell>
    <mxCell id="edge0" edge="1" value="" parent="1" source="node42" target="node20" style="html=1;rounded=1;edgeStyle=orthogonalEdgeStyle;dashed=0;startArrow=none;endArrow=block;endSize=12;strokeColor=#000082;exitX=0.750;exitY=0.001;exitDx=0;exitDy=0;entryX=0.500;entryY=1.001;entryDx=0;entryDy=0;">
      <mxGeometry width="50" height="50" relative="1" as="geometry">
        <Array as="points">
          <mxPoint x="475" y="332" />
          <mxPoint x="478" y="332" />
        </Array>
      </mxGeometry>
    </mxCell>
    <mxCell id="edge8" edge="1" value="" parent="1" source="node42" target="node23" style="html=1;rounded=1;edgeStyle=orthogonalEdgeStyle;dashed=1;startArrow=none;endArrow=openThin;endSize=12;strokeColor=#595959;exitX=0.250;exitY=0.001;exitDx=0;exitDy=0;entryX=0.500;entryY=1.001;entryDx=0;entryDy=0;">
      <mxGeometry width="50" height="50" relative="1" as="geometry">
        <Array as="points">
          <mxPoint x="420" y="332" />
          <mxPoint x="418" y="332" />
          <mxPoint x="418" y="252" />
          <mxPoint x="448" y="252" />
        </Array>
      </mxGeometry>
    </mxCell>
    <mxCell id="label50" parent="edge8" vertex="1" connectable="0" value="«create»" style="edgeLabel;resizable=0;html=1;align=left;verticalAlign=top;strokeColor=default;">
      <mxGeometry x="368" y="282" as="geometry" />
    </mxCell>
    <mxCell id="edge7" edge="1" value="" parent="1" source="node28" target="node3" style="html=1;rounded=1;edgeStyle=orthogonalEdgeStyle;dashed=0;startArrow=diamondThinstartSize=12;endArrow=openThin;endSize=12;strokeColor=#595959;exitX=0.500;exitY=0.000;exitDx=0;exitDy=0;entryX=0.500;entryY=1.000;entryDx=0;entryDy=0;">
      <mxGeometry width="50" height="50" relative="1" as="geometry">
        <Array as="points" />
      </mxGeometry>
    </mxCell>
    <mxCell id="label42" parent="edge7" vertex="1" connectable="0" value="1" style="edgeLabel;resizable=0;html=1;align=left;verticalAlign=top;strokeColor=default;">
      <mxGeometry x="-15" y="334" as="geometry" />
    </mxCell>
    <mxCell id="label46" parent="edge7" vertex="1" connectable="0" value="1" style="edgeLabel;resizable=0;html=1;align=left;verticalAlign=top;strokeColor=default;">
      <mxGeometry x="-15" y="314" as="geometry" />
    </mxCell>
    <mxCell id="label47" parent="edge7" vertex="1" connectable="0" value="recordingService" style="edgeLabel;resizable=0;html=1;align=left;verticalAlign=top;strokeColor=default;">
      <mxGeometry x="-4" y="314" as="geometry" />
    </mxCell>
  </root>
</mxGraphModel>